{
    "asset" : {
        "generator" : "Khronos glTF Blender I/O v0.9.36",
        "version" : "2.0"
    },
    "scene" : 0,
    "scenes" : [
        {
            "name" : "Scene",
            "nodes" : [
                5
            ]
        }
    ],
    "nodes" : [
        {
            "mesh" : 0,
            "name" : "polySurface45",
            "translation" : [
                0.6600574254989624,
                469.93194580078125,
                -156.94618225097656
            ]
        },
        {
            "mesh" : 1,
            "name" : "polySurface48",
            "rotation" : [
                -0.7071068286895752,
                0,
                0,
                0.7071067094802856
            ],
            "scale" : [
                2.7285549640655518,
                2.7285549640655518,
                2.7285549640655518
            ],
            "translation" : [
                0.6600576043128967,
                469.9318542480469,
                -231.23191833496094
            ]
        },
        {
            "mesh" : 2,
            "name" : "polySurface53"
        },
        {
            "children" : [
                0,
                1,
                2
            ],
            "name" : "group1",
            "translation" : [
                0,
                167.21026611328125,
                104.98490142822266
            ]
        },
        {
            "children" : [
                3
            ],
            "name" : "dioaji",
            "rotation" : [
                0,
                0,
                -0.012927733361721039,
                0.9999164342880249
            ],
            "translation" : [
                2.1367874145507812,
                -134.59463500976562,
                -117.42449188232422
            ]
        },
        {
            "children" : [
                4
            ],
            "name" : "car",
            "rotation" : [
                0.7071068286895752,
                0,
                0,
                0.7071067094802856
            ],
            "scale" : [
                0.03500000014901161,
                0.03500000014901161,
                0.03500000014901161
            ]
        }
    ],
    "meshes" : [
        {
            "name" : "Mesh.004",
            "primitives" : [
                {
                    "attributes" : {
                        "POSITION" : 0,
                        "NORMAL" : 1,
                        "TEXCOORD_0" : 2
                    },
                    "indices" : 3
                }
            ]
        },
        {
            "name" : "Mesh.005",
            "primitives" : [
                {
                    "attributes" : {
                        "POSITION" : 4,
                        "NORMAL" : 5,
                        "TEXCOORD_0" : 6
                    },
                    "indices" : 7
                }
            ]
        },
        {
            "name" : "Mesh.003",
            "primitives" : [
                {
                    "attributes" : {
                        "POSITION" : 8,
                        "NORMAL" : 9,
                        "TEXCOORD_0" : 10
                    },
                    "indices" : 11
                },
                {
                    "attributes" : {
                        "POSITION" : 12,
                        "NORMAL" : 13,
                        "TEXCOORD_0" : 14
                    },
                    "indices" : 15
                }
            ]
        }
    ],
    "accessors" : [
        {
            "bufferView" : 0,
            "componentType" : 5126,
            "count" : 139,
            "max" : [
                6.414326190948486,
                12.908900260925293,
                70.57188415527344
            ],
            "min" : [
                -7.332930088043213,
                -17.447851181030273,
                0.243865966796875
            ],
            "type" : "VEC3"
        },
        {
            "bufferView" : 1,
            "componentType" : 5126,
            "count" : 139,
            "type" : "VEC3"
        },
        {
            "bufferView" : 2,
            "componentType" : 5126,
            "count" : 139,
            "type" : "VEC2"
        },
        {
            "bufferView" : 3,
            "componentType" : 5123,
            "count" : 189,
            "type" : "SCALAR"
        },
        {
            "bufferView" : 4,
            "componentType" : 5126,
            "count" : 18,
            "max" : [
                1.226636528968811,
                -0.00106048583984375,
                1.005706787109375
            ],
            "min" : [
                -1.2746665477752686,
                -29.912498474121094,
                -0.883636474609375
            ],
            "type" : "VEC3"
        },
        {
            "bufferView" : 5,
            "componentType" : 5126,
            "count" : 18,
            "type" : "VEC3"
        },
        {
            "bufferView" : 6,
            "componentType" : 5126,
            "count" : 18,
            "type" : "VEC2"
        },
        {
            "bufferView" : 7,
            "componentType" : 5123,
            "count" : 18,
            "type" : "SCALAR"
        },
        {
            "bufferView" : 8,
            "componentType" : 5126,
            "count" : 166,
            "max" : [
                24.076507568359375,
                479.1161804199219,
                -203.91403198242188
            ],
            "min" : [
                -23.60740089416504,
                457.70257568359375,
                -273.7135314941406
            ],
            "type" : "VEC3"
        },
        {
            "bufferView" : 9,
            "componentType" : 5126,
            "count" : 166,
            "type" : "VEC3"
        },
        {
            "bufferView" : 10,
            "componentType" : 5126,
            "count" : 166,
            "type" : "VEC2"
        },
        {
            "bufferView" : 11,
            "componentType" : 5123,
            "count" : 186,
            "type" : "SCALAR"
        },
        {
            "bufferView" : 12,
            "componentType" : 5126,
            "count" : 110,
            "max" : [
                23.646991729736328,
                479.1202392578125,
                -226.83078002929688
            ],
            "min" : [
                -23.177886962890625,
                457.70257568359375,
                -273.26507568359375
            ],
            "type" : "VEC3"
        },
        {
            "bufferView" : 13,
            "componentType" : 5126,
            "count" : 110,
            "type" : "VEC3"
        },
        {
            "bufferView" : 14,
            "componentType" : 5126,
            "count" : 110,
            "type" : "VEC2"
        },
        {
            "bufferView" : 15,
            "componentType" : 5123,
            "count" : 126,
            "type" : "SCALAR"
        }
    ],
    "bufferViews" : [
        {
            "buffer" : 0,
            "byteLength" : 1668,
            "byteOffset" : 0
        },
        {
            "buffer" : 0,
            "byteLength" : 1668,
            "byteOffset" : 1668
        },
        {
            "buffer" : 0,
            "byteLength" : 1112,
            "byteOffset" : 3336
        },
        {
            "buffer" : 0,
            "byteLength" : 378,
            "byteOffset" : 4448
        },
        {
            "buffer" : 0,
            "byteLength" : 216,
            "byteOffset" : 4828
        },
        {
            "buffer" : 0,
            "byteLength" : 216,
            "byteOffset" : 5044
        },
        {
            "buffer" : 0,
            "byteLength" : 144,
            "byteOffset" : 5260
        },
        {
            "buffer" : 0,
            "byteLength" : 36,
            "byteOffset" : 5404
        },
        {
            "buffer" : 0,
            "byteLength" : 1992,
            "byteOffset" : 5440
        },
        {
            "buffer" : 0,
            "byteLength" : 1992,
            "byteOffset" : 7432
        },
        {
            "buffer" : 0,
            "byteLength" : 1328,
            "byteOffset" : 9424
        },
        {
            "buffer" : 0,
            "byteLength" : 372,
            "byteOffset" : 10752
        },
        {
            "buffer" : 0,
            "byteLength" : 1320,
            "byteOffset" : 11124
        },
        {
            "buffer" : 0,
            "byteLength" : 1320,
            "byteOffset" : 12444
        },
        {
            "buffer" : 0,
            "byteLength" : 880,
            "byteOffset" : 13764
        },
        {
            "buffer" : 0,
            "byteLength" : 252,
            "byteOffset" : 14644
        }
    ],
    "buffers" : [
        {
            "byteLength" : 14896,
            "uri" : "data:application/octet-stream;base64,"
        }
    ]
}
