{
    "asset" : {
        "generator" : "Khronos glTF Blender I/O v0.9.36",
        "version" : "2.0"
    },
    "scene" : 0,
    "scenes" : [
        {
            "name" : "Scene",
            "nodes" : [
                0
            ]
        }
    ],
    "nodes" : [
        {
            "mesh" : 0,
            "name" : "boat",
            "rotation" : [
                0.7071067690849304,
                0,
                0,
                0.7071067690849304
            ],
            "scale" : [
                0.5,
                0.5,
                0.5
            ]
        }
    ],
    "meshes" : [
        {
            "name" : "Mesh",
            "primitives" : [
                {
                    "attributes" : {
                        "POSITION" : 0,
                        "NORMAL" : 1,
                        "TEXCOORD_0" : 2
                    },
                    "indices" : 3
                }
            ]
        }
    ],
    "accessors" : [
        {
            "bufferView" : 0,
            "componentType" : 5126,
            "count" : 1764,
            "max" : [
                13.555607795715332,
                79.26046752929688,
                -0.31156158447265625
            ],
            "min" : [
                -13.480887413024902,
                -61.80689239501953,
                -44.974830627441406
            ],
            "type" : "VEC3"
        },
        {
            "bufferView" : 1,
            "componentType" : 5126,
            "count" : 1764,
            "type" : "VEC3"
        },
        {
            "bufferView" : 2,
            "componentType" : 5126,
            "count" : 1764,
            "type" : "VEC2"
        },
        {
            "bufferView" : 3,
            "componentType" : 5123,
            "count" : 2880,
            "type" : "SCALAR"
        }
    ],
    "bufferViews" : [
        {
            "buffer" : 0,
            "byteLength" : 21168,
            "byteOffset" : 0
        },
        {
            "buffer" : 0,
            "byteLength" : 21168,
            "byteOffset" : 21168
        },
        {
            "buffer" : 0,
            "byteLength" : 14112,
            "byteOffset" : 42336
        },
        {
            "buffer" : 0,
            "byteLength" : 5760,
            "byteOffset" : 56448
        }
    ],
    "buffers" : [
        {
            "byteLength" : 62208,
            "uri" : "data:application/octet-stream;base64,"
        }
    ]
}
