{
    "asset" : {
        "generator" : "Khronos glTF Blender I/O v0.9.36",
        "version" : "2.0"
    },
    "scene" : 0,
    "scenes" : [
        {
            "name" : "Scene",
            "nodes" : [
                0,
                1,
                2,
                3,
                4,
                5,
                6,
                7,
                8,
                9,
                10,
                11,
                12,
                13
            ]
        }
    ],
    "nodes" : [
        {
            "mesh" : 0,
            "name" : "polySurface2329",
            "rotation" : [
                0.7071068286895752,
                0,
                0,
                0.7071067094802856
            ]
        },
        {
            "mesh" : 1,
            "name" : "polySurface2330",
            "rotation" : [
                0.7071068286895752,
                0,
                0,
                0.7071067094802856
            ]
        },
        {
            "mesh" : 2,
            "name" : "polySurface2338",
            "rotation" : [
                0.7071068286895752,
                0,
                0,
                0.7071067094802856
            ]
        },
        {
            "mesh" : 3,
            "name" : "polySurface1855",
            "rotation" : [
                0.7071068286895752,
                0,
                0,
                0.7071067094802856
            ]
        },
        {
            "mesh" : 4,
            "name" : "polySurface1659",
            "rotation" : [
                0.7071068286895752,
                0,
                0,
                0.7071067094802856
            ]
        },
        {
            "mesh" : 5,
            "name" : "polySurface1662",
            "rotation" : [
                0.7071068286895752,
                0,
                0,
                0.7071067094802856
            ]
        },
        {
            "mesh" : 6,
            "name" : "polySurface1666",
            "rotation" : [
                0.7071068286895752,
                0,
                0,
                0.7071067094802856
            ]
        },
        {
            "mesh" : 7,
            "name" : "polySurface1689",
            "rotation" : [
                0.7071068286895752,
                0,
                0,
                0.7071067094802856
            ]
        },
        {
            "mesh" : 8,
            "name" : "polySurface1698",
            "rotation" : [
                0.7071068286895752,
                0,
                0,
                0.7071067094802856
            ]
        },
        {
            "mesh" : 9,
            "name" : "polySurface1719",
            "rotation" : [
                0.7071068286895752,
                0,
                0,
                0.7071067094802856
            ]
        },
        {
            "mesh" : 10,
            "name" : "polySurface1727",
            "rotation" : [
                0.7071068286895752,
                0,
                0,
                0.7071067094802856
            ]
        },
        {
            "mesh" : 11,
            "name" : "polySurface2344",
            "rotation" : [
                0.7071068286895752,
                0,
                0,
                0.7071067094802856
            ]
        },
        {
            "mesh" : 12,
            "name" : "polySurface2345",
            "rotation" : [
                0.7071068286895752,
                0,
                0,
                0.7071067094802856
            ]
        },
        {
            "mesh" : 13,
            "name" : "polySurface1667",
            "rotation" : [
                0.7071068286895752,
                0,
                0,
                0.7071067094802856
            ]
        }
    ],
    "meshes" : [
        {
            "name" : "polySurface2329",
            "primitives" : [
                {
                    "attributes" : {
                        "POSITION" : 0,
                        "NORMAL" : 1,
                        "TEXCOORD_0" : 2
                    },
                    "indices" : 3
                }
            ]
        },
        {
            "name" : "polySurface2330",
            "primitives" : [
                {
                    "attributes" : {
                        "POSITION" : 4,
                        "NORMAL" : 5,
                        "TEXCOORD_0" : 6
                    },
                    "indices" : 3
                }
            ]
        },
        {
            "name" : "polySurface2338",
            "primitives" : [
                {
                    "attributes" : {
                        "POSITION" : 7,
                        "NORMAL" : 8,
                        "TEXCOORD_0" : 9
                    },
                    "indices" : 10
                }
            ]
        },
        {
            "name" : "polySurface1855",
            "primitives" : [
                {
                    "attributes" : {
                        "POSITION" : 11,
                        "NORMAL" : 12,
                        "TEXCOORD_0" : 13
                    },
                    "indices" : 3
                }
            ]
        },
        {
            "name" : "polySurface1659",
            "primitives" : [
                {
                    "attributes" : {
                        "POSITION" : 14,
                        "NORMAL" : 15,
                        "TEXCOORD_0" : 16
                    },
                    "indices" : 17
                }
            ]
        },
        {
            "name" : "polySurface1662",
            "primitives" : [
                {
                    "attributes" : {
                        "POSITION" : 18,
                        "NORMAL" : 19,
                        "TEXCOORD_0" : 20
                    },
                    "indices" : 3
                }
            ]
        },
        {
            "name" : "polySurface1666",
            "primitives" : [
                {
                    "attributes" : {
                        "POSITION" : 21,
                        "NORMAL" : 22,
                        "TEXCOORD_0" : 23
                    },
                    "indices" : 3
                }
            ]
        },
        {
            "name" : "polySurface1689",
            "primitives" : [
                {
                    "attributes" : {
                        "POSITION" : 24,
                        "NORMAL" : 25,
                        "TEXCOORD_0" : 26
                    },
                    "indices" : 3
                }
            ]
        },
        {
            "name" : "polySurface1698",
            "primitives" : [
                {
                    "attributes" : {
                        "POSITION" : 27,
                        "NORMAL" : 28,
                        "TEXCOORD_0" : 29
                    },
                    "indices" : 3
                }
            ]
        },
        {
            "name" : "polySurface1719",
            "primitives" : [
                {
                    "attributes" : {
                        "POSITION" : 30,
                        "NORMAL" : 31,
                        "TEXCOORD_0" : 32
                    },
                    "indices" : 3
                }
            ]
        },
        {
            "name" : "polySurface1727",
            "primitives" : [
                {
                    "attributes" : {
                        "POSITION" : 33,
                        "NORMAL" : 34,
                        "TEXCOORD_0" : 35
                    },
                    "indices" : 3
                }
            ]
        },
        {
            "name" : "polySurface2344",
            "primitives" : [
                {
                    "attributes" : {
                        "POSITION" : 36,
                        "NORMAL" : 37,
                        "TEXCOORD_0" : 38
                    },
                    "indices" : 3
                }
            ]
        },
        {
            "name" : "polySurface2345",
            "primitives" : [
                {
                    "attributes" : {
                        "POSITION" : 39,
                        "NORMAL" : 40,
                        "TEXCOORD_0" : 41
                    },
                    "indices" : 3
                }
            ]
        },
        {
            "name" : "polySurface1667",
            "primitives" : [
                {
                    "attributes" : {
                        "POSITION" : 42,
                        "NORMAL" : 43,
                        "TEXCOORD_0" : 44
                    },
                    "indices" : 3
                }
            ]
        }
    ],
    "accessors" : [
        {
            "bufferView" : 0,
            "componentType" : 5126,
            "count" : 24,
            "max" : [
                6.117741107940674,
                5.0103440284729,
                3.878561019897461
            ],
            "min" : [
                -6.117741107940674,
                -5.0103440284729,
                -3.878561019897461
            ],
            "type" : "VEC3"
        },
        {
            "bufferView" : 1,
            "componentType" : 5126,
            "count" : 24,
            "type" : "VEC3"
        },
        {
            "bufferView" : 2,
            "componentType" : 5126,
            "count" : 24,
            "type" : "VEC2"
        },
        {
            "bufferView" : 3,
            "componentType" : 5123,
            "count" : 36,
            "type" : "SCALAR"
        },
        {
            "bufferView" : 4,
            "componentType" : 5126,
            "count" : 24,
            "max" : [
                5.732109069824219,
                5.0103440284729,
                4.135044097900391
            ],
            "min" : [
                -5.732109069824219,
                -5.0103440284729,
                -4.135044097900391
            ],
            "type" : "VEC3"
        },
        {
            "bufferView" : 5,
            "componentType" : 5126,
            "count" : 24,
            "type" : "VEC3"
        },
        {
            "bufferView" : 6,
            "componentType" : 5126,
            "count" : 24,
            "type" : "VEC2"
        },
        {
            "bufferView" : 7,
            "componentType" : 5126,
            "count" : 20,
            "max" : [
                5.630970001220703,
                4.64028787612915,
                7.846852779388428
            ],
            "min" : [
                -5.630970001220703,
                -4.64028787612915,
                -7.846852779388428
            ],
            "type" : "VEC3"
        },
        {
            "bufferView" : 8,
            "componentType" : 5126,
            "count" : 20,
            "type" : "VEC3"
        },
        {
            "bufferView" : 9,
            "componentType" : 5126,
            "count" : 20,
            "type" : "VEC2"
        },
        {
            "bufferView" : 10,
            "componentType" : 5123,
            "count" : 30,
            "type" : "SCALAR"
        },
        {
            "bufferView" : 11,
            "componentType" : 5126,
            "count" : 24,
            "max" : [
                0.041666679084300995,
                0.3109028935432434,
                0.0416666716337204
            ],
            "min" : [
                -0.041666679084300995,
                -0.3109028935432434,
                -0.0416666716337204
            ],
            "type" : "VEC3"
        },
        {
            "bufferView" : 12,
            "componentType" : 5126,
            "count" : 24,
            "type" : "VEC3"
        },
        {
            "bufferView" : 13,
            "componentType" : 5126,
            "count" : 24,
            "type" : "VEC2"
        },
        {
            "bufferView" : 14,
            "componentType" : 5126,
            "count" : 18,
            "max" : [
                0.125,
                0.6889622807502747,
                0.06250011920928955
            ],
            "min" : [
                -0.125,
                -0.6889622807502747,
                -0.06250011920928955
            ],
            "type" : "VEC3"
        },
        {
            "bufferView" : 15,
            "componentType" : 5126,
            "count" : 18,
            "type" : "VEC3"
        },
        {
            "bufferView" : 16,
            "componentType" : 5126,
            "count" : 18,
            "type" : "VEC2"
        },
        {
            "bufferView" : 17,
            "componentType" : 5123,
            "count" : 24,
            "type" : "SCALAR"
        },
        {
            "bufferView" : 18,
            "componentType" : 5126,
            "count" : 24,
            "max" : [
                0.24999989569187164,
                0.6889626979827881,
                0.06250011920928955
            ],
            "min" : [
                -0.24999989569187164,
                -0.6889626979827881,
                -0.06250011920928955
            ],
            "type" : "VEC3"
        },
        {
            "bufferView" : 19,
            "componentType" : 5126,
            "count" : 24,
            "type" : "VEC3"
        },
        {
            "bufferView" : 20,
            "componentType" : 5126,
            "count" : 24,
            "type" : "VEC2"
        },
        {
            "bufferView" : 21,
            "componentType" : 5126,
            "count" : 24,
            "max" : [
                0.18750019371509552,
                0.6889628767967224,
                0.0625
            ],
            "min" : [
                -0.18750019371509552,
                -0.6889628767967224,
                -0.0625
            ],
            "type" : "VEC3"
        },
        {
            "bufferView" : 22,
            "componentType" : 5126,
            "count" : 24,
            "type" : "VEC3"
        },
        {
            "bufferView" : 23,
            "componentType" : 5126,
            "count" : 24,
            "type" : "VEC2"
        },
        {
            "bufferView" : 24,
            "componentType" : 5126,
            "count" : 24,
            "max" : [
                0.029998779296875,
                0.2164440006017685,
                0.029998779296875
            ],
            "min" : [
                -0.029998779296875,
                -0.2164440006017685,
                -0.029998779296875
            ],
            "type" : "VEC3"
        },
        {
            "bufferView" : 25,
            "componentType" : 5126,
            "count" : 24,
            "type" : "VEC3"
        },
        {
            "bufferView" : 26,
            "componentType" : 5126,
            "count" : 24,
            "type" : "VEC2"
        },
        {
            "bufferView" : 27,
            "componentType" : 5126,
            "count" : 24,
            "max" : [
                0.13249920308589935,
                1.1245909929275513,
                0.13249939680099487
            ],
            "min" : [
                -0.13249920308589935,
                -1.1245909929275513,
                -0.13249939680099487
            ],
            "type" : "VEC3"
        },
        {
            "bufferView" : 28,
            "componentType" : 5126,
            "count" : 24,
            "type" : "VEC3"
        },
        {
            "bufferView" : 29,
            "componentType" : 5126,
            "count" : 24,
            "type" : "VEC2"
        },
        {
            "bufferView" : 30,
            "componentType" : 5126,
            "count" : 24,
            "max" : [
                0.18663689494132996,
                0.24210239946842194,
                0.0135613102465868
            ],
            "min" : [
                -0.18663689494132996,
                -0.24210239946842194,
                -0.0135613102465868
            ],
            "type" : "VEC3"
        },
        {
            "bufferView" : 31,
            "componentType" : 5126,
            "count" : 24,
            "type" : "VEC3"
        },
        {
            "bufferView" : 32,
            "componentType" : 5126,
            "count" : 24,
            "type" : "VEC2"
        },
        {
            "bufferView" : 33,
            "componentType" : 5126,
            "count" : 24,
            "max" : [
                0.013561369851231575,
                0.24210239946842194,
                0.1948315054178238
            ],
            "min" : [
                -0.013561369851231575,
                -0.24210239946842194,
                -0.1948315054178238
            ],
            "type" : "VEC3"
        },
        {
            "bufferView" : 34,
            "componentType" : 5126,
            "count" : 24,
            "type" : "VEC3"
        },
        {
            "bufferView" : 35,
            "componentType" : 5126,
            "count" : 24,
            "type" : "VEC2"
        },
        {
            "bufferView" : 36,
            "componentType" : 5126,
            "count" : 24,
            "max" : [
                0.9304351806640625,
                5.64546012878418,
                0.9490622878074646
            ],
            "min" : [
                -0.9304351806640625,
                -5.64546012878418,
                -0.9490622878074646
            ],
            "type" : "VEC3"
        },
        {
            "bufferView" : 37,
            "componentType" : 5126,
            "count" : 24,
            "type" : "VEC3"
        },
        {
            "bufferView" : 38,
            "componentType" : 5126,
            "count" : 24,
            "type" : "VEC2"
        },
        {
            "bufferView" : 39,
            "componentType" : 5126,
            "count" : 24,
            "max" : [
                2.8840749263763428,
                5.029167175292969,
                2.110797882080078
            ],
            "min" : [
                -2.8840749263763428,
                -5.029167175292969,
                -2.110797882080078
            ],
            "type" : "VEC3"
        },
        {
            "bufferView" : 40,
            "componentType" : 5126,
            "count" : 24,
            "type" : "VEC3"
        },
        {
            "bufferView" : 41,
            "componentType" : 5126,
            "count" : 24,
            "type" : "VEC2"
        },
        {
            "bufferView" : 42,
            "componentType" : 5126,
            "count" : 24,
            "max" : [
                0.25000008940696716,
                0.6889628171920776,
                0.06249988079071045
            ],
            "min" : [
                -0.25000008940696716,
                -0.6889628171920776,
                -0.06249988079071045
            ],
            "type" : "VEC3"
        },
        {
            "bufferView" : 43,
            "componentType" : 5126,
            "count" : 24,
            "type" : "VEC3"
        },
        {
            "bufferView" : 44,
            "componentType" : 5126,
            "count" : 24,
            "type" : "VEC2"
        }
    ],
    "bufferViews" : [
        {
            "buffer" : 0,
            "byteLength" : 288,
            "byteOffset" : 0
        },
        {
            "buffer" : 0,
            "byteLength" : 288,
            "byteOffset" : 288
        },
        {
            "buffer" : 0,
            "byteLength" : 192,
            "byteOffset" : 576
        },
        {
            "buffer" : 0,
            "byteLength" : 72,
            "byteOffset" : 768
        },
        {
            "buffer" : 0,
            "byteLength" : 288,
            "byteOffset" : 840
        },
        {
            "buffer" : 0,
            "byteLength" : 288,
            "byteOffset" : 1128
        },
        {
            "buffer" : 0,
            "byteLength" : 192,
            "byteOffset" : 1416
        },
        {
            "buffer" : 0,
            "byteLength" : 240,
            "byteOffset" : 1608
        },
        {
            "buffer" : 0,
            "byteLength" : 240,
            "byteOffset" : 1848
        },
        {
            "buffer" : 0,
            "byteLength" : 160,
            "byteOffset" : 2088
        },
        {
            "buffer" : 0,
            "byteLength" : 60,
            "byteOffset" : 2248
        },
        {
            "buffer" : 0,
            "byteLength" : 288,
            "byteOffset" : 2308
        },
        {
            "buffer" : 0,
            "byteLength" : 288,
            "byteOffset" : 2596
        },
        {
            "buffer" : 0,
            "byteLength" : 192,
            "byteOffset" : 2884
        },
        {
            "buffer" : 0,
            "byteLength" : 216,
            "byteOffset" : 3076
        },
        {
            "buffer" : 0,
            "byteLength" : 216,
            "byteOffset" : 3292
        },
        {
            "buffer" : 0,
            "byteLength" : 144,
            "byteOffset" : 3508
        },
        {
            "buffer" : 0,
            "byteLength" : 48,
            "byteOffset" : 3652
        },
        {
            "buffer" : 0,
            "byteLength" : 288,
            "byteOffset" : 3700
        },
        {
            "buffer" : 0,
            "byteLength" : 288,
            "byteOffset" : 3988
        },
        {
            "buffer" : 0,
            "byteLength" : 192,
            "byteOffset" : 4276
        },
        {
            "buffer" : 0,
            "byteLength" : 288,
            "byteOffset" : 4468
        },
        {
            "buffer" : 0,
            "byteLength" : 288,
            "byteOffset" : 4756
        },
        {
            "buffer" : 0,
            "byteLength" : 192,
            "byteOffset" : 5044
        },
        {
            "buffer" : 0,
            "byteLength" : 288,
            "byteOffset" : 5236
        },
        {
            "buffer" : 0,
            "byteLength" : 288,
            "byteOffset" : 5524
        },
        {
            "buffer" : 0,
            "byteLength" : 192,
            "byteOffset" : 5812
        },
        {
            "buffer" : 0,
            "byteLength" : 288,
            "byteOffset" : 6004
        },
        {
            "buffer" : 0,
            "byteLength" : 288,
            "byteOffset" : 6292
        },
        {
            "buffer" : 0,
            "byteLength" : 192,
            "byteOffset" : 6580
        },
        {
            "buffer" : 0,
            "byteLength" : 288,
            "byteOffset" : 6772
        },
        {
            "buffer" : 0,
            "byteLength" : 288,
            "byteOffset" : 7060
        },
        {
            "buffer" : 0,
            "byteLength" : 192,
            "byteOffset" : 7348
        },
        {
            "buffer" : 0,
            "byteLength" : 288,
            "byteOffset" : 7540
        },
        {
            "buffer" : 0,
            "byteLength" : 288,
            "byteOffset" : 7828
        },
        {
            "buffer" : 0,
            "byteLength" : 192,
            "byteOffset" : 8116
        },
        {
            "buffer" : 0,
            "byteLength" : 288,
            "byteOffset" : 8308
        },
        {
            "buffer" : 0,
            "byteLength" : 288,
            "byteOffset" : 8596
        },
        {
            "buffer" : 0,
            "byteLength" : 192,
            "byteOffset" : 8884
        },
        {
            "buffer" : 0,
            "byteLength" : 288,
            "byteOffset" : 9076
        },
        {
            "buffer" : 0,
            "byteLength" : 288,
            "byteOffset" : 9364
        },
        {
            "buffer" : 0,
            "byteLength" : 192,
            "byteOffset" : 9652
        },
        {
            "buffer" : 0,
            "byteLength" : 288,
            "byteOffset" : 9844
        },
        {
            "buffer" : 0,
            "byteLength" : 288,
            "byteOffset" : 10132
        },
        {
            "buffer" : 0,
            "byteLength" : 192,
            "byteOffset" : 10420
        }
    ],
    "buffers" : [
        {
            "byteLength" : 10612,
            "uri" : "data:application/octet-stream;base64,"
        }
    ]
}
