{
    "asset" : {
        "generator" : "Khronos glTF Blender I/O v0.9.36",
        "version" : "2.0"
    },
    "scene" : 0,
    "scenes" : [
        {
            "name" : "Scene",
            "nodes" : [
                10
            ]
        }
    ],
    "nodes" : [
        {
            "mesh" : 0,
            "name" : "chuan1"
        },
        {
            "mesh" : 1,
            "name" : "shazi_2",
            "translation" : [
                -0.01949935406446457,
                -26.867774963378906,
                19.417560577392578
            ]
        },
        {
            "children" : [
                1
            ],
            "mesh" : 2,
            "name" : "dou",
            "rotation" : [
                -0.38268348574638367,
                0,
                0,
                0.9238795042037964
            ],
            "scale" : [
                0.7098603248596191,
                0.855688750743866,
                0.855688750743866
            ],
            "translation" : [
                0,
                -3.814697265625e-06,
                0
            ]
        },
        {
            "children" : [
                2
            ],
            "mesh" : 3,
            "name" : "chuansongdai",
            "scale" : [
                0.8730131983757019,
                0.8730131983757019,
                0.8730131983757019
            ],
            "translation" : [
                0.014568448066711426,
                19.32210922241211,
                -23.650737762451172
            ]
        },
        {
            "mesh" : 4,
            "name" : "penkou1",
            "scale" : [
                3.877505302429199,
                3.877505302429199,
                3.877505302429199
            ],
            "translation" : [
                10.520859718322754,
                38.17688751220703,
                11.179180145263672
            ]
        },
        {
            "mesh" : 5,
            "name" : "penkou2",
            "scale" : [
                3.877505302429199,
                3.877505302429199,
                3.877505302429199
            ],
            "translation" : [
                10.520862579345703,
                38.17689514160156,
                11.179180145263672
            ]
        },
        {
            "mesh" : 6,
            "name" : "penkou3",
            "scale" : [
                3.877505302429199,
                3.877505302429199,
                3.877505302429199
            ],
            "translation" : [
                10.520862579345703,
                38.17688751220703,
                11.179182052612305
            ]
        },
        {
            "mesh" : 7,
            "name" : "penkou4",
            "scale" : [
                3.877505302429199,
                3.877505302429199,
                3.877505302429199
            ],
            "translation" : [
                10.52086067199707,
                38.17689514160156,
                11.179180145263672
            ]
        },
        {
            "children" : [
                4,
                5,
                6,
                7
            ],
            "name" : "penkou",
            "scale" : [
                0.747574508190155,
                0.747574508190155,
                0.747574508190155
            ],
            "translation" : [
                -2.220150947570801,
                -6.884773254394531,
                -6.809564590454102
            ]
        },
        {
            "mesh" : 8,
            "name" : "shazi_1",
            "scale" : [
                12.762951850891113,
                12.762951850891113,
                12.762951850891113
            ],
            "translation" : [
                0,
                -1.3173015117645264,
                -11.236218452453613
            ]
        },
        {
            "children" : [
                0,
                3,
                8,
                9
            ],
            "name" : "boat",
            "rotation" : [
                0.7071068286895752,
                0,
                0,
                0.7071067094802856
            ]
        }
    ],
    "meshes" : [
        {
            "name" : "Mesh.001",
            "primitives" : [
                {
                    "attributes" : {
                        "POSITION" : 0,
                        "NORMAL" : 1,
                        "TEXCOORD_0" : 2
                    },
                    "indices" : 3
                }
            ]
        },
        {
            "name" : "Mesh.004",
            "primitives" : [
                {
                    "attributes" : {
                        "POSITION" : 4,
                        "NORMAL" : 5,
                        "TEXCOORD_0" : 6
                    },
                    "indices" : 7
                }
            ]
        },
        {
            "name" : "Mesh.003",
            "primitives" : [
                {
                    "attributes" : {
                        "POSITION" : 8,
                        "NORMAL" : 9,
                        "TEXCOORD_0" : 10
                    },
                    "indices" : 11
                }
            ]
        },
        {
            "name" : "Mesh.002",
            "primitives" : [
                {
                    "attributes" : {
                        "POSITION" : 12,
                        "NORMAL" : 13,
                        "TEXCOORD_0" : 14
                    },
                    "indices" : 15
                }
            ]
        },
        {
            "name" : "Mesh.006",
            "primitives" : [
                {
                    "attributes" : {
                        "POSITION" : 16,
                        "NORMAL" : 17,
                        "TEXCOORD_0" : 18
                    },
                    "indices" : 19
                }
            ]
        },
        {
            "name" : "Mesh.005",
            "primitives" : [
                {
                    "attributes" : {
                        "POSITION" : 20,
                        "NORMAL" : 21,
                        "TEXCOORD_0" : 22
                    },
                    "indices" : 23
                }
            ]
        },
        {
            "name" : "Mesh.007",
            "primitives" : [
                {
                    "attributes" : {
                        "POSITION" : 24,
                        "NORMAL" : 25,
                        "TEXCOORD_0" : 26
                    },
                    "indices" : 27
                }
            ]
        },
        {
            "name" : "Mesh.008",
            "primitives" : [
                {
                    "attributes" : {
                        "POSITION" : 28,
                        "NORMAL" : 29,
                        "TEXCOORD_0" : 30
                    },
                    "indices" : 31
                }
            ]
        },
        {
            "name" : "Mesh",
            "primitives" : [
                {
                    "attributes" : {
                        "POSITION" : 32,
                        "NORMAL" : 33,
                        "TEXCOORD_0" : 34
                    },
                    "indices" : 35
                }
            ]
        }
    ],
    "accessors" : [
        {
            "bufferView" : 0,
            "componentType" : 5126,
            "count" : 1423,
            "max" : [
                12.253341674804688,
                35.20242691040039,
                0
            ],
            "min" : [
                -12.25335693359375,
                -55.4476318359375,
                -40.26421356201172
            ],
            "type" : "VEC3"
        },
        {
            "bufferView" : 1,
            "componentType" : 5126,
            "count" : 1423,
            "type" : "VEC3"
        },
        {
            "bufferView" : 2,
            "componentType" : 5126,
            "count" : 1423,
            "type" : "VEC2"
        },
        {
            "bufferView" : 3,
            "componentType" : 5123,
            "count" : 2877,
            "type" : "SCALAR"
        },
        {
            "bufferView" : 4,
            "componentType" : 5126,
            "count" : 6,
            "max" : [
                3.645920515060425,
                34.849273681640625,
                -21.482940673828125
            ],
            "min" : [
                -3.632854700088501,
                29.683860778808594,
                -22.37732696533203
            ],
            "type" : "VEC3"
        },
        {
            "bufferView" : 5,
            "componentType" : 5126,
            "count" : 6,
            "type" : "VEC3"
        },
        {
            "bufferView" : 6,
            "componentType" : 5126,
            "count" : 6,
            "type" : "VEC2"
        },
        {
            "bufferView" : 7,
            "componentType" : 5123,
            "count" : 12,
            "type" : "SCALAR"
        },
        {
            "bufferView" : 8,
            "componentType" : 5126,
            "count" : 96,
            "max" : [
                4.143867015838623,
                8.69390869140625,
                0.32000303268432617
            ],
            "min" : [
                -4.169799327850342,
                2.1595001220703125,
                -3.4054455757141113
            ],
            "type" : "VEC3"
        },
        {
            "bufferView" : 9,
            "componentType" : 5126,
            "count" : 96,
            "type" : "VEC3"
        },
        {
            "bufferView" : 10,
            "componentType" : 5126,
            "count" : 96,
            "type" : "VEC2"
        },
        {
            "bufferView" : 11,
            "componentType" : 5123,
            "count" : 204,
            "type" : "SCALAR"
        },
        {
            "bufferView" : 12,
            "componentType" : 5126,
            "count" : 188,
            "max" : [
                3.733241319656372,
                39.9107551574707,
                3.7420616149902344
            ],
            "min" : [
                -3.751649856567383,
                -4.421833038330078,
                -3.742826461791992
            ],
            "type" : "VEC3"
        },
        {
            "bufferView" : 13,
            "componentType" : 5126,
            "count" : 188,
            "type" : "VEC3"
        },
        {
            "bufferView" : 14,
            "componentType" : 5126,
            "count" : 188,
            "type" : "VEC2"
        },
        {
            "bufferView" : 15,
            "componentType" : 5123,
            "count" : 372,
            "type" : "SCALAR"
        },
        {
            "bufferView" : 16,
            "componentType" : 5126,
            "count" : 80,
            "max" : [
                -3.696037769317627,
                -14.943116188049316,
                -5.158890247344971
            ],
            "min" : [
                -4.735450267791748,
                -15.971817016601562,
                -8.275683403015137
            ],
            "type" : "VEC3"
        },
        {
            "bufferView" : 17,
            "componentType" : 5126,
            "count" : 80,
            "type" : "VEC3"
        },
        {
            "bufferView" : 18,
            "componentType" : 5126,
            "count" : 80,
            "type" : "VEC2"
        },
        {
            "bufferView" : 19,
            "componentType" : 5123,
            "count" : 144,
            "type" : "SCALAR"
        },
        {
            "bufferView" : 20,
            "componentType" : 5126,
            "count" : 80,
            "max" : [
                -3.9170494079589844,
                -15.090763092041016,
                -8.230456352233887
            ],
            "min" : [
                -5.41408109664917,
                -15.824172019958496,
                -9.6569242477417
            ],
            "type" : "VEC3"
        },
        {
            "bufferView" : 21,
            "componentType" : 5126,
            "count" : 80,
            "type" : "VEC3"
        },
        {
            "bufferView" : 22,
            "componentType" : 5126,
            "count" : 80,
            "type" : "VEC2"
        },
        {
            "bufferView" : 23,
            "componentType" : 5123,
            "count" : 192,
            "type" : "SCALAR"
        },
        {
            "bufferView" : 24,
            "componentType" : 5126,
            "count" : 112,
            "max" : [
                -5.40256404876709,
                -15.090763092041016,
                -8.941062927246094
            ],
            "min" : [
                -6.345136642456055,
                -15.824172973632812,
                -9.6569242477417
            ],
            "type" : "VEC3"
        },
        {
            "bufferView" : 25,
            "componentType" : 5126,
            "count" : 112,
            "type" : "VEC3"
        },
        {
            "bufferView" : 26,
            "componentType" : 5126,
            "count" : 112,
            "type" : "VEC2"
        },
        {
            "bufferView" : 27,
            "componentType" : 5123,
            "count" : 192,
            "type" : "SCALAR"
        },
        {
            "bufferView" : 28,
            "componentType" : 5126,
            "count" : 232,
            "max" : [
                -6.3187479972839355,
                -15.005727767944336,
                -8.0227632522583
            ],
            "min" : [
                -7.835267066955566,
                -15.909207344055176,
                -9.6569242477417
            ],
            "type" : "VEC3"
        },
        {
            "bufferView" : 29,
            "componentType" : 5126,
            "count" : 232,
            "type" : "VEC3"
        },
        {
            "bufferView" : 30,
            "componentType" : 5126,
            "count" : 232,
            "type" : "VEC2"
        },
        {
            "bufferView" : 31,
            "componentType" : 5123,
            "count" : 408,
            "type" : "SCALAR"
        },
        {
            "bufferView" : 32,
            "componentType" : 5126,
            "count" : 25,
            "max" : [
                0.7071291208267212,
                1.0665621757507324,
                0.03431807458400726
            ],
            "min" : [
                -0.7071291208267212,
                -1.0665621757507324,
                -0.30074119567871094
            ],
            "type" : "VEC3"
        },
        {
            "bufferView" : 33,
            "componentType" : 5126,
            "count" : 25,
            "type" : "VEC3"
        },
        {
            "bufferView" : 34,
            "componentType" : 5126,
            "count" : 25,
            "type" : "VEC2"
        },
        {
            "bufferView" : 35,
            "componentType" : 5123,
            "count" : 36,
            "type" : "SCALAR"
        }
    ],
    "bufferViews" : [
        {
            "buffer" : 0,
            "byteLength" : 17076,
            "byteOffset" : 0
        },
        {
            "buffer" : 0,
            "byteLength" : 17076,
            "byteOffset" : 17076
        },
        {
            "buffer" : 0,
            "byteLength" : 11384,
            "byteOffset" : 34152
        },
        {
            "buffer" : 0,
            "byteLength" : 5754,
            "byteOffset" : 45536
        },
        {
            "buffer" : 0,
            "byteLength" : 72,
            "byteOffset" : 51292
        },
        {
            "buffer" : 0,
            "byteLength" : 72,
            "byteOffset" : 51364
        },
        {
            "buffer" : 0,
            "byteLength" : 48,
            "byteOffset" : 51436
        },
        {
            "buffer" : 0,
            "byteLength" : 24,
            "byteOffset" : 51484
        },
        {
            "buffer" : 0,
            "byteLength" : 1152,
            "byteOffset" : 51508
        },
        {
            "buffer" : 0,
            "byteLength" : 1152,
            "byteOffset" : 52660
        },
        {
            "buffer" : 0,
            "byteLength" : 768,
            "byteOffset" : 53812
        },
        {
            "buffer" : 0,
            "byteLength" : 408,
            "byteOffset" : 54580
        },
        {
            "buffer" : 0,
            "byteLength" : 2256,
            "byteOffset" : 54988
        },
        {
            "buffer" : 0,
            "byteLength" : 2256,
            "byteOffset" : 57244
        },
        {
            "buffer" : 0,
            "byteLength" : 1504,
            "byteOffset" : 59500
        },
        {
            "buffer" : 0,
            "byteLength" : 744,
            "byteOffset" : 61004
        },
        {
            "buffer" : 0,
            "byteLength" : 960,
            "byteOffset" : 61748
        },
        {
            "buffer" : 0,
            "byteLength" : 960,
            "byteOffset" : 62708
        },
        {
            "buffer" : 0,
            "byteLength" : 640,
            "byteOffset" : 63668
        },
        {
            "buffer" : 0,
            "byteLength" : 288,
            "byteOffset" : 64308
        },
        {
            "buffer" : 0,
            "byteLength" : 960,
            "byteOffset" : 64596
        },
        {
            "buffer" : 0,
            "byteLength" : 960,
            "byteOffset" : 65556
        },
        {
            "buffer" : 0,
            "byteLength" : 640,
            "byteOffset" : 66516
        },
        {
            "buffer" : 0,
            "byteLength" : 384,
            "byteOffset" : 67156
        },
        {
            "buffer" : 0,
            "byteLength" : 1344,
            "byteOffset" : 67540
        },
        {
            "buffer" : 0,
            "byteLength" : 1344,
            "byteOffset" : 68884
        },
        {
            "buffer" : 0,
            "byteLength" : 896,
            "byteOffset" : 70228
        },
        {
            "buffer" : 0,
            "byteLength" : 384,
            "byteOffset" : 71124
        },
        {
            "buffer" : 0,
            "byteLength" : 2784,
            "byteOffset" : 71508
        },
        {
            "buffer" : 0,
            "byteLength" : 2784,
            "byteOffset" : 74292
        },
        {
            "buffer" : 0,
            "byteLength" : 1856,
            "byteOffset" : 77076
        },
        {
            "buffer" : 0,
            "byteLength" : 816,
            "byteOffset" : 78932
        },
        {
            "buffer" : 0,
            "byteLength" : 300,
            "byteOffset" : 79748
        },
        {
            "buffer" : 0,
            "byteLength" : 300,
            "byteOffset" : 80048
        },
        {
            "buffer" : 0,
            "byteLength" : 200,
            "byteOffset" : 80348
        },
        {
            "buffer" : 0,
            "byteLength" : 72,
            "byteOffset" : 80548
        }
    ],
    "buffers" : [
        {
            "byteLength" : 80620,
            "uri" : "data:application/octet-stream;base64,"
        }
    ]
}
