{
    "asset" : {
        "generator" : "Khronos glTF Blender I/O v0.9.36",
        "version" : "2.0"
    },
    "scene" : 0,
    "scenes" : [
        {
            "name" : "Scene",
            "nodes" : [
                1
            ]
        }
    ],
    "nodes" : [
        {
            "mesh" : 0,
            "name" : "shazi",
            "rotation" : [
                0.020441656932234764,
                0,
                0,
                0.9997910857200623
            ],
            "scale" : [
                1.2206209897994995,
                1.0665620565414429,
                1.0665620565414429
            ],
            "translation" : [
                0.018266139551997185,
                -0.484619140625,
                -3.6701881885528564
            ]
        },
        {
            "children" : [
                0
            ],
            "mesh" : 1,
            "name" : "boat",
            "rotation" : [
                0.6925045847892761,
                0,
                0,
                0.7214134335517883
            ]
        }
    ],
    "meshes" : [
        {
            "name" : "Mesh.001",
            "primitives" : [
                {
                    "attributes" : {
                        "POSITION" : 0,
                        "NORMAL" : 1,
                        "TEXCOORD_0" : 2
                    },
                    "indices" : 3
                }
            ]
        },
        {
            "name" : "Mesh",
            "primitives" : [
                {
                    "attributes" : {
                        "POSITION" : 4,
                        "NORMAL" : 5,
                        "TEXCOORD_0" : 6
                    },
                    "indices" : 7
                }
            ]
        }
    ],
    "accessors" : [
        {
            "bufferView" : 0,
            "componentType" : 5126,
            "count" : 26,
            "max" : [
                1.6967792510986328,
                3.931589365005493,
                0.05518817901611328
            ],
            "min" : [
                -1.6967754364013672,
                -3.931589365005493,
                -0.6622552871704102
            ],
            "type" : "VEC3"
        },
        {
            "bufferView" : 1,
            "componentType" : 5126,
            "count" : 26,
            "type" : "VEC3"
        },
        {
            "bufferView" : 2,
            "componentType" : 5126,
            "count" : 26,
            "type" : "VEC2"
        },
        {
            "bufferView" : 3,
            "componentType" : 5123,
            "count" : 66,
            "type" : "SCALAR"
        },
        {
            "bufferView" : 4,
            "componentType" : 5126,
            "count" : 1302,
            "max" : [
                3.7156524658203125,
                12.161230087280273,
                -0.11101090908050537
            ],
            "min" : [
                -3.6455888748168945,
                -12.161229133605957,
                -6.766003608703613
            ],
            "type" : "VEC3"
        },
        {
            "bufferView" : 5,
            "componentType" : 5126,
            "count" : 1302,
            "type" : "VEC3"
        },
        {
            "bufferView" : 6,
            "componentType" : 5126,
            "count" : 1302,
            "type" : "VEC2"
        },
        {
            "bufferView" : 7,
            "componentType" : 5123,
            "count" : 2424,
            "type" : "SCALAR"
        }
    ],
    "bufferViews" : [
        {
            "buffer" : 0,
            "byteLength" : 312,
            "byteOffset" : 0
        },
        {
            "buffer" : 0,
            "byteLength" : 312,
            "byteOffset" : 312
        },
        {
            "buffer" : 0,
            "byteLength" : 208,
            "byteOffset" : 624
        },
        {
            "buffer" : 0,
            "byteLength" : 132,
            "byteOffset" : 832
        },
        {
            "buffer" : 0,
            "byteLength" : 15624,
            "byteOffset" : 964
        },
        {
            "buffer" : 0,
            "byteLength" : 15624,
            "byteOffset" : 16588
        },
        {
            "buffer" : 0,
            "byteLength" : 10416,
            "byteOffset" : 32212
        },
        {
            "buffer" : 0,
            "byteLength" : 4848,
            "byteOffset" : 42628
        }
    ],
    "buffers" : [
        {
            "byteLength" : 47476,
            "uri" : "data:application/octet-stream;base64,"
        }
    ]
}
