{
    "asset" : {
        "generator" : "Khronos glTF Blender I/O v0.9.36",
        "version" : "2.0"
    },
    "scene" : 0,
    "scenes" : [
        {
            "name" : "Scene",
            "nodes" : [
                6
            ]
        }
    ],
    "nodes" : [
        {
            "mesh" : 0,
            "name" : "car.001"
        },
        {
            "mesh" : 1,
            "name" : "Wheel_FL",
            "rotation" : [
                -0.7071068286895752,
                0,
                0,
                0.7071067094802856
            ],
            "translation" : [
                89.802001953125,
                125.99462890625,
                -40.2633171081543
            ]
        },
        {
            "mesh" : 2,
            "name" : "Wheel_FR",
            "rotation" : [
                -0.7071068286895752,
                0,
                0,
                0.7071067094802856
            ],
            "translation" : [
                -89.918701171875,
                125.99462890625,
                -40.26333236694336
            ]
        },
        {
            "mesh" : 3,
            "name" : "Wheel_RL",
            "rotation" : [
                -0.6985014081001282,
                0.005727420095354319,
                0.007872897200286388,
                0.7155424356460571
            ],
            "translation" : [
                89.802001953125,
                -159.760986328125,
                -40.26333236694336
            ]
        },
        {
            "mesh" : 4,
            "name" : "Wheel_RR",
            "rotation" : [
                -0.7071068286895752,
                0,
                0,
                0.7071067094802856
            ],
            "translation" : [
                -89.918701171875,
                -159.760986328125,
                -40.263343811035156
            ]
        },
        {
            "children" : [
                1,
                2,
                3,
                4
            ],
            "name" : "luntai"
        },
        {
            "children" : [
                0,
                5
            ],
            "name" : "car",
            "rotation" : [
                0.7071068286895752,
                0,
                0,
                0.7071067094802856
            ],
            "scale" : [
                0.03500000014901161,
                0.03500000014901161,
                0.03500000014901161
            ]
        }
    ],
    "meshes" : [
        {
            "name" : "Mesh.006",
            "primitives" : [
                {
                    "attributes" : {
                        "POSITION" : 0,
                        "NORMAL" : 1,
                        "TEXCOORD_0" : 2
                    },
                    "indices" : 3
                },
                {
                    "attributes" : {
                        "POSITION" : 4,
                        "NORMAL" : 5,
                        "TEXCOORD_0" : 6
                    },
                    "indices" : 7
                }
            ]
        },
        {
            "name" : "Mesh.010",
            "primitives" : [
                {
                    "attributes" : {
                        "POSITION" : 8,
                        "NORMAL" : 9,
                        "TEXCOORD_0" : 10
                    },
                    "indices" : 11
                }
            ]
        },
        {
            "name" : "Mesh.009",
            "primitives" : [
                {
                    "attributes" : {
                        "POSITION" : 12,
                        "NORMAL" : 13,
                        "TEXCOORD_0" : 14
                    },
                    "indices" : 15
                }
            ]
        },
        {
            "name" : "Mesh.008",
            "primitives" : [
                {
                    "attributes" : {
                        "POSITION" : 16,
                        "NORMAL" : 17,
                        "TEXCOORD_0" : 18
                    },
                    "indices" : 19
                }
            ]
        },
        {
            "name" : "Mesh.007",
            "primitives" : [
                {
                    "attributes" : {
                        "POSITION" : 20,
                        "NORMAL" : 21,
                        "TEXCOORD_0" : 22
                    },
                    "indices" : 15
                }
            ]
        }
    ],
    "accessors" : [
        {
            "bufferView" : 0,
            "componentType" : 5126,
            "count" : 1927,
            "max" : [
                119.80025482177734,
                348.26708984375,
                -20.369842529296875
            ],
            "min" : [
                -119.33096313476562,
                -306.8512268066406,
                -192.80320739746094
            ],
            "type" : "VEC3"
        },
        {
            "bufferView" : 1,
            "componentType" : 5126,
            "count" : 1927,
            "type" : "VEC3"
        },
        {
            "bufferView" : 2,
            "componentType" : 5126,
            "count" : 1927,
            "type" : "VEC2"
        },
        {
            "bufferView" : 3,
            "componentType" : 5123,
            "count" : 2919,
            "type" : "SCALAR"
        },
        {
            "bufferView" : 4,
            "componentType" : 5126,
            "count" : 75,
            "max" : [
                102.05863189697266,
                338.7427978515625,
                -42.572021484375
            ],
            "min" : [
                -101.58943939208984,
                212.54702758789062,
                -197.9265594482422
            ],
            "type" : "VEC3"
        },
        {
            "bufferView" : 5,
            "componentType" : 5126,
            "count" : 75,
            "type" : "VEC3"
        },
        {
            "bufferView" : 6,
            "componentType" : 5126,
            "count" : 75,
            "type" : "VEC2"
        },
        {
            "bufferView" : 7,
            "componentType" : 5123,
            "count" : 105,
            "type" : "SCALAR"
        },
        {
            "bufferView" : 8,
            "componentType" : 5126,
            "count" : 42,
            "max" : [
                15.641189575195312,
                55.573814392089844,
                48.12847900390625
            ],
            "min" : [
                -19.280677795410156,
                -48.12841796875,
                -48.12846374511719
            ],
            "type" : "VEC3"
        },
        {
            "bufferView" : 9,
            "componentType" : 5126,
            "count" : 42,
            "type" : "VEC3"
        },
        {
            "bufferView" : 10,
            "componentType" : 5126,
            "count" : 42,
            "type" : "VEC2"
        },
        {
            "bufferView" : 11,
            "componentType" : 5123,
            "count" : 72,
            "type" : "SCALAR"
        },
        {
            "bufferView" : 12,
            "componentType" : 5126,
            "count" : 42,
            "max" : [
                19.280860900878906,
                55.573814392089844,
                48.128570556640625
            ],
            "min" : [
                -15.641005516052246,
                -48.12841796875,
                -48.12837219238281
            ],
            "type" : "VEC3"
        },
        {
            "bufferView" : 13,
            "componentType" : 5126,
            "count" : 42,
            "type" : "VEC3"
        },
        {
            "bufferView" : 14,
            "componentType" : 5126,
            "count" : 42,
            "type" : "VEC2"
        },
        {
            "bufferView" : 15,
            "componentType" : 5123,
            "count" : 72,
            "type" : "SCALAR"
        },
        {
            "bufferView" : 16,
            "componentType" : 5126,
            "count" : 42,
            "max" : [
                15.641189575195312,
                55.573814392089844,
                48.12860107421875
            ],
            "min" : [
                -19.280677795410156,
                -48.12841796875,
                -48.12834167480469
            ],
            "type" : "VEC3"
        },
        {
            "bufferView" : 17,
            "componentType" : 5126,
            "count" : 42,
            "type" : "VEC3"
        },
        {
            "bufferView" : 18,
            "componentType" : 5126,
            "count" : 42,
            "type" : "VEC2"
        },
        {
            "bufferView" : 19,
            "componentType" : 5123,
            "count" : 72,
            "type" : "SCALAR"
        },
        {
            "bufferView" : 20,
            "componentType" : 5126,
            "count" : 42,
            "max" : [
                19.280860900878906,
                55.573814392089844,
                48.12834167480469
            ],
            "min" : [
                -15.641005516052246,
                -48.12841796875,
                -48.12860107421875
            ],
            "type" : "VEC3"
        },
        {
            "bufferView" : 21,
            "componentType" : 5126,
            "count" : 42,
            "type" : "VEC3"
        },
        {
            "bufferView" : 22,
            "componentType" : 5126,
            "count" : 42,
            "type" : "VEC2"
        }
    ],
    "bufferViews" : [
        {
            "buffer" : 0,
            "byteLength" : 23124,
            "byteOffset" : 0
        },
        {
            "buffer" : 0,
            "byteLength" : 23124,
            "byteOffset" : 23124
        },
        {
            "buffer" : 0,
            "byteLength" : 15416,
            "byteOffset" : 46248
        },
        {
            "buffer" : 0,
            "byteLength" : 5838,
            "byteOffset" : 61664
        },
        {
            "buffer" : 0,
            "byteLength" : 900,
            "byteOffset" : 67504
        },
        {
            "buffer" : 0,
            "byteLength" : 900,
            "byteOffset" : 68404
        },
        {
            "buffer" : 0,
            "byteLength" : 600,
            "byteOffset" : 69304
        },
        {
            "buffer" : 0,
            "byteLength" : 210,
            "byteOffset" : 69904
        },
        {
            "buffer" : 0,
            "byteLength" : 504,
            "byteOffset" : 70116
        },
        {
            "buffer" : 0,
            "byteLength" : 504,
            "byteOffset" : 70620
        },
        {
            "buffer" : 0,
            "byteLength" : 336,
            "byteOffset" : 71124
        },
        {
            "buffer" : 0,
            "byteLength" : 144,
            "byteOffset" : 71460
        },
        {
            "buffer" : 0,
            "byteLength" : 504,
            "byteOffset" : 71604
        },
        {
            "buffer" : 0,
            "byteLength" : 504,
            "byteOffset" : 72108
        },
        {
            "buffer" : 0,
            "byteLength" : 336,
            "byteOffset" : 72612
        },
        {
            "buffer" : 0,
            "byteLength" : 144,
            "byteOffset" : 72948
        },
        {
            "buffer" : 0,
            "byteLength" : 504,
            "byteOffset" : 73092
        },
        {
            "buffer" : 0,
            "byteLength" : 504,
            "byteOffset" : 73596
        },
        {
            "buffer" : 0,
            "byteLength" : 336,
            "byteOffset" : 74100
        },
        {
            "buffer" : 0,
            "byteLength" : 144,
            "byteOffset" : 74436
        },
        {
            "buffer" : 0,
            "byteLength" : 504,
            "byteOffset" : 74580
        },
        {
            "buffer" : 0,
            "byteLength" : 504,
            "byteOffset" : 75084
        },
        {
            "buffer" : 0,
            "byteLength" : 336,
            "byteOffset" : 75588
        }
    ],
    "buffers" : [
        {
            "byteLength" : 75924,
            "uri" : "data:application/octet-stream;base64,"
        }
    ]
}
